<svg xmlns="http://www.w3.org/2000/svg" aria-hidden="true" style="position:absolute;width:0;height:0;overflow:hidden"><defs><symbol id="icon-arrow" viewBox="0 0 32 32"><path fill="#6c5ce7" d="M14.585 27.415a1.997 1.997 0 0 0 2.826 0l7.545-7.541a2.001 2.001 0 0 0-2.83-2.83l-4.129 4.128V5.792a2 2 0 0 0-4 0v15.38l-4.128-4.128a2.005 2.005 0 0 0-2.181-.434 2.005 2.005 0 0 0-1.083 2.615c.1.243.248.463.434.649l7.544 7.541z" style="fill:var(--color1, #6c5ce7)"/></symbol><symbol id="icon-arrow-left" viewBox="0 0 32 32"><path fill="#6c5ce7" d="M4.48 14.482a1.997 1.997 0 0 0 0 2.826l7.541 7.545a2.001 2.001 0 0 0 2.83-2.83l-4.128-4.129h15.38a2 2 0 0 0 0-4h-15.38l4.128-4.128a2.005 2.005 0 0 0 .434-2.181 2.005 2.005 0 0 0-2.615-1.083 2 2 0 0 0-.649.434L4.48 14.48z" style="fill:var(--color1, #6c5ce7)"/></symbol><symbol id="icon-arrow-right" viewBox="0 0 32 32"><path fill="#6c5ce7" d="M27.518 17.31a1.997 1.997 0 0 0 0-2.826l-7.541-7.545a2.001 2.001 0 0 0-2.83 2.83l4.128 4.129H5.895a2 2 0 0 0 0 4h15.38l-4.128 4.128a2.005 2.005 0 0 0-.434 2.181 2 2 0 0 0 1.083 1.083 2 2 0 0 0 1.532 0c.243-.101.463-.248.649-.434l7.541-7.544z" style="fill:var(--color1, #6c5ce7)"/></symbol><symbol id="icon-close" viewBox="0 0 32 32"><path d="m8.533 25.333-1.867-1.867 7.467-7.467-7.467-7.467 1.867-1.867L16 14.132l7.467-7.467 1.867 1.867-7.467 7.467 7.467 7.467-1.867 1.867L16 17.866z"/></symbol><symbol id="icon-menu" viewBox="0 0 32 32"><path d="M4 24v-2h24v2zm0-7v-2h24v2zm0-7V8h24v2z"/></symbol><symbol id="icon-puzzle" viewBox="0 0 32 32" fill="none">
  <path d="M29.3334 18C29.3334 20.3467 27.6001 22.2934 25.3334 22.6134V26.6667C25.3334 27.3739 25.0525 28.0522 24.5524 28.5523C24.0523 29.0524 23.374 29.3334 22.6667 29.3334H17.6001V28.9334C17.6001 27.9786 17.2208 27.0629 16.5457 26.3878C15.8705 25.7126 14.9549 25.3334 14.0001 25.3334C12.0001 25.3334 10.4001 26.9467 10.4001 28.9334V29.3334H5.33341C4.62617 29.3334 3.94789 29.0524 3.4478 28.5523C2.9477 28.0522 2.66675 27.3739 2.66675 26.6667V21.6H3.06675C5.05341 21.6 6.66675 20 6.66675 18C6.66675 16 5.05341 14.4 3.06675 14.4H2.66675V9.33335C2.66675 8.62611 2.9477 7.94783 3.4478 7.44774C3.94789 6.94764 4.62617 6.66669 5.33341 6.66669H9.38675C9.70675 4.40002 11.6534 2.66669 14.0001 2.66669C16.3467 2.66669 18.2934 4.40002 18.6134 6.66669H22.6667C23.374 6.66669 24.0523 6.94764 24.5524 7.44774C25.0525 7.94783 25.3334 8.62611 25.3334 9.33335V13.3867C27.6001 13.7067 29.3334 15.6534 29.3334 18ZM22.6667 20H24.6667C25.1972 20 25.7059 19.7893 26.081 19.4142C26.456 19.0392 26.6667 18.5305 26.6667 18C26.6667 17.4696 26.456 16.9609 26.081 16.5858C25.7059 16.2107 25.1972 16 24.6667 16H22.6667V9.33335H16.0001V7.33335C16.0001 6.80292 15.7894 6.29421 15.4143 5.91914C15.0392 5.54407 14.5305 5.33335 14.0001 5.33335C13.4696 5.33335 12.9609 5.54407 12.5859 5.91914C12.2108 6.29421 12.0001 6.80292 12.0001 7.33335V9.33335H5.33341V12.16C7.68008 13.0667 9.33341 15.3334 9.33341 18C9.33341 20.6667 7.66675 22.9334 5.33341 23.84V26.6667H8.16008C8.61697 25.489 9.41908 24.477 10.4612 23.7632C11.5034 23.0494 12.7369 22.6672 14.0001 22.6667C16.6667 22.6667 18.9334 24.3334 19.8401 26.6667H22.6667V20Z" fill="#6C5CE7" />
</symbol></defs></svg>