<svg xmlns="http://www.w3.org/2000/svg" aria-hidden="true" style="position:absolute;width:0;height:0;overflow:hidden"><defs><symbol id="icon-arrow" viewBox="0 0 32 32"><path fill="#6c5ce7" d="M14.585 27.415a1.997 1.997 0 0 0 2.826 0l7.545-7.541a2.001 2.001 0 0 0-2.83-2.83l-4.129 4.128V5.792a2 2 0 0 0-4 0v15.38l-4.128-4.128a2.005 2.005 0 0 0-2.181-.434 2.005 2.005 0 0 0-1.083 2.615c.1.243.248.463.434.649l7.544 7.541z" style="fill:var(--color1, #6c5ce7)"/></symbol><symbol id="icon-arrow-left" viewBox="0 0 32 32"><path fill="#6c5ce7" d="M4.48 14.482a1.997 1.997 0 0 0 0 2.826l7.541 7.545a2.001 2.001 0 0 0 2.83-2.83l-4.128-4.129h15.38a2 2 0 0 0 0-4h-15.38l4.128-4.128a2.005 2.005 0 0 0 .434-2.181 2.005 2.005 0 0 0-2.615-1.083 2 2 0 0 0-.649.434L4.48 14.48z" style="fill:var(--color1, #6c5ce7)"/></symbol><symbol id="icon-arrow-right" viewBox="0 0 32 32"><path fill="#6c5ce7" d="M27.518 17.31a1.997 1.997 0 0 0 0-2.826l-7.541-7.545a2.001 2.001 0 0 0-2.83 2.83l4.128 4.129H5.895a2 2 0 0 0 0 4h15.38l-4.128 4.128a2.005 2.005 0 0 0-.434 2.181 2 2 0 0 0 1.083 1.083 2 2 0 0 0 1.532 0c.243-.101.463-.248.649-.434l7.541-7.544z" style="fill:var(--color1, #6c5ce7)"/></symbol><symbol id="icon-close" viewBox="0 0 32 32"><path d="m8.533 25.333-1.867-1.867 7.467-7.467-7.467-7.467 1.867-1.867L16 14.132l7.467-7.467 1.867 1.867-7.467 7.467 7.467 7.467-1.867 1.867L16 17.866z"/></symbol><symbol id="icon-menu" viewBox="0 0 32 32"><path d="M4 24v-2h24v2zm0-7v-2h24v2zm0-7V8h24v2z"/></symbol></defs></svg>